<svg xmlns="http://www.w3.org/2000/svg" width="25.872" height="34.147" viewBox="0 0 25.872 34.147"><defs><style>.a{fill:#c4ff00;}</style></defs><path class="a" d="M1430.29,278.719V253.1a.342.342,0,0,1,.1-.243l7.922-7.848a.343.343,0,0,1,.241-.1h17.265a.342.342,0,0,1,.342.342v33.462a.342.342,0,0,1-.342.342h-25.187A.342.342,0,0,1,1430.29,278.719Zm1.536-.851H1454.7a.342.342,0,0,0,.342-.342V246.45a.342.342,0,0,0-.342-.342h-15.115a.342.342,0,0,0-.342.342v6.75a.6.6,0,0,1-.593.593h-6.827a.342.342,0,0,0-.342.342v23.39A.342.342,0,0,0,1431.826,277.868Zm.482-25.191h5.745v-5.745Z" transform="translate(-1430.29 -244.914)"/><rect class="a" width="15.18" height="1.193" rx="0.597" transform="translate(5.423 12.041)"/><rect class="a" width="15.18" height="1.193" rx="0.597" transform="translate(5.423 15.91)"/><path class="a" d="M1512.329,442.3l-5.312-5.313a.25.25,0,0,0-.343,0l-5.312,5.313a1.229,1.229,0,0,0,.625,2.072v3.991a.242.242,0,0,0,.243.242h3.515a.243.243,0,0,0,.243-.242V444.39h1.717v3.968a.242.242,0,0,0,.242.242h3.515a.243.243,0,0,0,.243-.242v-3.991a1.228,1.228,0,0,0,.625-2.072Zm-1.524.953a.242.242,0,0,0-.242.242v3.969h-1.717v-3.969a.242.242,0,0,0-.242-.242h-3.515a.242.242,0,0,0-.242.242v3.969h-1.717v-3.968a.243.243,0,0,0-.243-.242h-.656a.086.086,0,0,1-.061-.146l4.677-4.677,4.677,4.677a.086.086,0,0,1-.061.146Z" transform="translate(-1494.141 -418.292)"/></svg>