<svg xmlns="http://www.w3.org/2000/svg" width="26.77" height="34.917" viewBox="0 0 26.77 34.917"><defs><style>.a{fill:#ffce00;}</style></defs><path class="a" d="M92.381,240.945H69.1a1.746,1.746,0,0,0-1.746,1.746v31.425a1.746,1.746,0,0,0,1.746,1.746H92.381a1.746,1.746,0,0,0,1.746-1.746V242.691a1.746,1.746,0,0,0-1.746-1.746Zm.582,33.171a.582.582,0,0,1-.582.582H69.1a.582.582,0,0,1-.582-.582V242.691a.582.582,0,0,1,.582-.582H92.381a.582.582,0,0,1,.582.582Zm0,0" transform="translate(-67.357 -240.945)"/><path class="a" d="M112.889,306.945H91.939a.582.582,0,0,0-.582.582v6.983a.582.582,0,0,0,.582.582h20.95a.582.582,0,0,0,.582-.582v-6.983a.582.582,0,0,0-.582-.582Zm-.582,6.983H92.521v-5.82h19.786Zm0,0" transform="translate(-89.029 -300.544)"/><path class="a" d="M100.668,264.945H91.939a.582.582,0,0,0-.582.582v1.746a.582.582,0,0,0,.582.582h8.729a.582.582,0,0,0,.582-.582v-1.746a.582.582,0,0,0-.582-.582Zm-.582,1.746H92.521v-.582h7.565Zm0,0" transform="translate(-89.029 -262.617)"/><path class="a" d="M95.431,402.945H91.939a.582.582,0,0,0-.582.582v3.492a.582.582,0,0,0,.582.582h3.492a.582.582,0,0,0,.582-.582v-3.492a.582.582,0,0,0-.582-.582Zm-.582,3.492H92.521v-2.328h2.328Zm0,0" transform="translate(-89.029 -387.232)"/><path class="a" d="M155.431,402.945h-3.492a.582.582,0,0,0-.582.582v3.492a.582.582,0,0,0,.582.582h3.492a.582.582,0,0,0,.582-.582v-3.492a.582.582,0,0,0-.582-.582Zm-.582,3.492h-2.328v-2.328h2.328Zm0,0" transform="translate(-143.21 -387.232)"/><path class="a" d="M215.431,402.945h-3.492a.582.582,0,0,0-.582.582v3.492a.582.582,0,0,0,.582.582h3.492a.582.582,0,0,0,.582-.582v-3.492a.582.582,0,0,0-.582-.582Zm-.582,3.492h-2.328v-2.328h2.328Zm0,0" transform="translate(-197.39 -387.232)"/><path class="a" d="M275.431,402.945h-3.492a.582.582,0,0,0-.582.582v3.492a.582.582,0,0,0,.582.582h3.492a.582.582,0,0,0,.582-.582v-3.492a.582.582,0,0,0-.582-.582Zm-.582,3.492h-2.328v-2.328h2.328Zm0,0" transform="translate(-251.571 -387.232)"/><path class="a" d="M95.431,462.945H91.939a.582.582,0,0,0-.582.582v3.492a.582.582,0,0,0,.582.582h3.492a.582.582,0,0,0,.582-.582v-3.492a.582.582,0,0,0-.582-.582Zm-.582,3.492H92.521v-2.328h2.328Zm0,0" transform="translate(-89.029 -441.413)"/><path class="a" d="M155.431,462.945h-3.492a.582.582,0,0,0-.582.582v3.492a.582.582,0,0,0,.582.582h3.492a.582.582,0,0,0,.582-.582v-3.492a.582.582,0,0,0-.582-.582Zm-.582,3.492h-2.328v-2.328h2.328Zm0,0" transform="translate(-143.21 -441.413)"/><path class="a" d="M215.431,462.945h-3.492a.582.582,0,0,0-.582.582v3.492a.582.582,0,0,0,.582.582h3.492a.582.582,0,0,0,.582-.582v-3.492a.582.582,0,0,0-.582-.582Zm-.582,3.492h-2.328v-2.328h2.328Zm0,0" transform="translate(-197.39 -441.413)"/><path class="a" d="M275.431,462.945h-3.492a.582.582,0,0,0-.582.582v9.311a.582.582,0,0,0,.582.582h3.492a.582.582,0,0,0,.582-.582v-9.311a.582.582,0,0,0-.582-.582Zm-.582,9.311h-2.328v-8.147h2.328Zm0,0" transform="translate(-251.571 -441.413)"/><path class="a" d="M95.431,522.945H91.939a.582.582,0,0,0-.582.582v3.492a.582.582,0,0,0,.582.582h3.492a.582.582,0,0,0,.582-.582v-3.492a.582.582,0,0,0-.582-.582Zm-.582,3.492H92.521v-2.328h2.328Zm0,0" transform="translate(-89.029 -495.593)"/><path class="a" d="M155.431,522.945h-3.492a.582.582,0,0,0-.582.582v3.492a.582.582,0,0,0,.582.582h3.492a.582.582,0,0,0,.582-.582v-3.492a.582.582,0,0,0-.582-.582Zm-.582,3.492h-2.328v-2.328h2.328Zm0,0" transform="translate(-143.21 -495.593)"/><path class="a" d="M215.431,522.945h-3.492a.582.582,0,0,0-.582.582v3.492a.582.582,0,0,0,.582.582h3.492a.582.582,0,0,0,.582-.582v-3.492a.582.582,0,0,0-.582-.582Zm-.582,3.492h-2.328v-2.328h2.328Zm0,0" transform="translate(-197.39 -495.593)"/></svg>