<svg xmlns="http://www.w3.org/2000/svg" width="42.688" height="34.422" viewBox="0 0 42.688 34.422"><defs><style>.a{fill:#00ceff;}</style></defs><path class="a" d="M807.532,277.918a.6.6,0,0,1-.6-.6v-33.23a.6.6,0,0,1,.6-.6h15.2a6.8,6.8,0,0,1,5.357,2.581l.194.244.194-.244a6.8,6.8,0,0,1,5.357-2.581h15.2a.6.6,0,0,1,.6.6v33.23a.6.6,0,0,1-.6.6Zm26.3-4.217a5.621,5.621,0,0,0-4.789,2.646l-.238.379h19.628V273.7Zm-25.7,3.025h19.627l-.238-.379a5.621,5.621,0,0,0-4.789-2.646h-14.6Zm0-4.217h14.6a6.834,6.834,0,0,1,4.543,1.719l.412.365v-26.98l-.032-.057a5.664,5.664,0,0,0-4.923-2.869h-14.6Zm25.7-27.821a5.665,5.665,0,0,0-4.923,2.869l-.032.057v26.98l.412-.365a6.834,6.834,0,0,1,4.543-1.719h14.6V244.688Z" transform="translate(-806.936 -243.496)"/><path class="a" d="M854.764,484.688a.6.6,0,0,1-.524-.312.588.588,0,0,1-.069-.223.6.6,0,0,1,0-.061.6.6,0,0,1,.6-.6h10.77l.057,0a.6.6,0,0,1,.536.534c0,.02,0,.039,0,.059a.585.585,0,0,1,0,.058.6.6,0,0,1-.534.534l-.059,0Z" transform="translate(-849.587 -460.218)"/><path class="a" d="M854.764,424.4a.6.6,0,0,1,0-1.192h10.77a.6.6,0,1,1,0,1.192Z" transform="translate(-849.587 -405.776)"/><path class="a" d="M854.764,364.109a.6.6,0,1,1,0-1.192h10.77a.6.6,0,1,1,0,1.192Z" transform="translate(-849.587 -351.334)"/><path class="a" d="M854.764,303.818a.6.6,0,0,1,0-1.192h10.77a.6.6,0,1,1,0,1.192Z" transform="translate(-849.587 -296.891)"/><path class="a" d="M1077.363,484.688a.589.589,0,0,1-.379-.136.6.6,0,0,1,.379-1.056h10.77l.058,0a.6.6,0,0,1,.536.534c0,.021,0,.04,0,.059a.561.561,0,0,1,0,.057.6.6,0,0,1-.534.536l-.059,0Z" transform="translate(-1050.596 -460.218)"/><path class="a" d="M1077.363,424.4a.6.6,0,1,1,0-1.192h10.77a.6.6,0,1,1,0,1.192Z" transform="translate(-1050.596 -405.776)"/><path class="a" d="M1077.363,364.109a.6.6,0,1,1,0-1.192h10.77a.6.6,0,1,1,0,1.192Z" transform="translate(-1050.596 -351.334)"/><path class="a" d="M1077.363,303.818a.6.6,0,1,1,0-1.192h10.77a.6.6,0,1,1,0,1.192Z" transform="translate(-1050.596 -296.891)"/></svg>