<svg xmlns="http://www.w3.org/2000/svg" width="35.166" height="34.752" viewBox="0 0 35.166 34.752"><defs><style>.a{fill:#ce00ff;}</style></defs><path class="a" d="M571.368,425.217a1.328,1.328,0,1,1,1.518-1.314.69.69,0,0,0,1.38,0,2.745,2.745,0,0,0-2.208-2.616v-.359a.69.69,0,1,0-1.38,0v.359a2.746,2.746,0,0,0-2.208,2.616,2.805,2.805,0,0,0,2.9,2.694,1.328,1.328,0,1,1-1.518,1.314.69.69,0,0,0-1.38,0,2.745,2.745,0,0,0,2.208,2.616v.3a.69.69,0,0,0,1.38,0v-.3a2.745,2.745,0,0,0,2.208-2.616,2.8,2.8,0,0,0-2.9-2.694Zm0,0" transform="translate(-547.854 -402.848)"/><path class="a" d="M572.137,432.2a.608.608,0,0,1-.607-.608v-.364l-.064-.015a2.652,2.652,0,0,1-2.144-2.536.608.608,0,1,1,1.215,0,1.615,1.615,0,1,0,1.6-1.4,2.723,2.723,0,0,1-2.816-2.612,2.653,2.653,0,0,1,2.144-2.536l.064-.015V421.7a.608.608,0,1,1,1.215,0v.424l.064.015a2.652,2.652,0,0,1,2.144,2.536.608.608,0,1,1-1.215,0,1.615,1.615,0,1,0-1.6,1.4,2.723,2.723,0,0,1,2.816,2.612,2.651,2.651,0,0,1-2.144,2.536l-.064.015v.364A.608.608,0,0,1,572.137,432.2Z" transform="translate(-548.622 -403.617)"/><path class="a" d="M632.874,398.359a8.994,8.994,0,0,0-3.673-3.25.69.69,0,1,0-.6,1.244,7.6,7.6,0,0,1,3.422,10.405.69.69,0,1,0,1.218.648,8.981,8.981,0,0,0-.369-9.047Zm0,0" transform="translate(-601.801 -380.094)"/><path class="a" d="M633.4,408.458a.608.608,0,0,1-.536-.893,7.679,7.679,0,0,0-3.459-10.519.608.608,0,0,1,.264-1.155.6.6,0,0,1,.263.06,8.894,8.894,0,0,1,4,12.184A.607.607,0,0,1,633.4,408.458Z" transform="translate(-602.572 -380.863)"/><path class="a" d="M602.678,386.656h-.046a.69.69,0,1,0,0,1.38h.043a.69.69,0,0,0,0-1.38Zm0,0" transform="translate(-578.079 -372.523)"/><path class="a" d="M603.4,388.721a.608.608,0,1,1,0-1.215h.046a.608.608,0,0,1,0,1.215Z" transform="translate(-578.848 -373.291)"/><path class="a" d="M511.581,443.4A7.6,7.6,0,0,1,508.16,433a.69.69,0,1,0-1.218-.648,8.975,8.975,0,0,0,4.042,12.3.69.69,0,1,0,.6-1.244Zm0,0" transform="translate(-491.348 -413.455)"/><path class="a" d="M512.05,445.4a.6.6,0,0,1-.263-.06,8.894,8.894,0,0,1-4-12.185.608.608,0,1,1,1.073.571,7.679,7.679,0,0,0,3.459,10.519.608.608,0,0,1-.264,1.155Z" transform="translate(-492.116 -414.223)"/><path class="a" d="M580.89,557.407h-.04a.69.69,0,0,0-.006,1.38h.046a.69.69,0,1,0,0-1.38Zm0,0" transform="translate(-558.407 -526.713)"/><path class="a" d="M581.612,559.472a.608.608,0,0,1,0-1.215h.041a.608.608,0,1,1,0,1.215Z" transform="translate(-559.176 -527.48)"/><path class="a" d="M379.433,275.7a11.69,11.69,0,0,1-8.507-3.7l-.024-.026h-8.168a3.09,3.09,0,0,1-1.921-5.511l.081-.065-.081-.065a3.086,3.086,0,0,1,0-4.839l.081-.065-.081-.065a3.086,3.086,0,0,1,0-4.839l.081-.064-.081-.065a3.09,3.09,0,0,1,1.921-5.511h1.957l-.089-.129a3.083,3.083,0,0,1,0-3.495l.089-.129h-5.683a3.092,3.092,0,1,1,0-6.184h16.906a3.09,3.09,0,0,1,2.549,4.839l-.089.129h5.683a3.092,3.092,0,1,1,0,6.184H382.1l.089.129a3.076,3.076,0,0,1,.3.549l.016.037.038.011a11.649,11.649,0,0,1-3.112,22.875Zm0-22.082a10.433,10.433,0,1,0,10.433,10.433A10.445,10.445,0,0,0,379.433,253.615ZM362.733,267a1.877,1.877,0,1,0,0,3.753h7.18l-.089-.129a11.576,11.576,0,0,1-1.644-3.563l-.016-.061Zm0-4.968a1.877,1.877,0,1,0,0,3.753h5.181l-.013-.094a11.665,11.665,0,0,1,.042-3.563l.016-.1Zm0-4.968a1.877,1.877,0,1,0,0,3.753h5.507l.017-.059a11.581,11.581,0,0,1,1.761-3.563l.1-.131Zm0-4.969a1.877,1.877,0,1,0,0,3.753h8.432l.024-.024a11.567,11.567,0,0,1,8.243-3.426c.323,0,.654.014.983.042l.043-.156a1.861,1.861,0,0,0-.819-.189Zm4.416-4.968a1.877,1.877,0,0,0,0,3.753h16.906a1.877,1.877,0,0,0,0-3.753Zm-8.143-4.968a1.877,1.877,0,1,0,0,3.753h16.906a1.877,1.877,0,0,0,0-3.753Z" transform="translate(-355.915 -240.945)"/></svg>